<svg xmlns="http://www.w3.org/2000/svg">
  <symbol id="icon_loader" width="32" height="32">
    <path d="M30.067 16c1.068 0 1.945.868 1.817 1.928a16.002 16.002 0 01-30.018 5.57A16 16 0 0123.31 1.768c.95.487 1.176 1.7.578 2.584-.599.884-1.796 1.099-2.763.648a12.135 12.135 0 106.857 12.924C28.15 16.871 29 16 30.067 16z" fill="currentColor"/>
  </symbol>
  <symbol id="icon_plus" width="13" height="13">
    <path d="M6.5 3.405a.464.464 0 00-.464.464V9.13a.464.464 0 10.928 0V3.869a.464.464 0 00-.464-.464z" fill="currentColor"/><path d="M9.131 6.036H3.87a.464.464 0 100 .928H9.13a.464.464 0 100-.928z" fill="currentColor"/><path d="M6.5 0A6.507 6.507 0 000 6.5C0 10.084 2.916 13 6.5 13S13 10.084 13 6.5 10.084 0 6.5 0zm0 12.071A5.578 5.578 0 01.929 6.5C.929 3.428 3.428.929 6.5.929c3.072 0 5.571 2.499 5.571 5.571 0 3.072-2.499 5.571-5.571 5.571z" fill="currentColor"/>
  </symbol>
  <symbol id="icon_secure" width="9" height="13">
    <path d="M8.78 7.222a.668.668 0 00-.53-.262H8v-1.8c0-1.15-.344-2.137-1.031-2.962C6.28 1.372 5.459.96 4.499.96c-.958 0-1.78.412-2.468 1.237C1.344 3.023 1 4.01 1 5.16v1.8H.75a.668.668 0 00-.531.262A.963.963 0 000 7.86v5.4c0 .25.073.463.219.638a.669.669 0 00.531.262h7.5a.669.669 0 00.531-.262A.964.964 0 009 13.26v-5.4a.962.962 0 00-.22-.638zM6.5 6.96h-4v-1.8c0-.663.195-1.228.586-1.697.39-.469.862-.703 1.414-.703.552 0 1.023.234 1.414.703.39.469.586 1.034.586 1.697v1.8z" fill="currentColor"/>
  </symbol>
</svg>
