<svg width="103" height="118" fill="none" xmlns="http://www.w3.org/2000/svg"><g opacity=".2" fill="#A6ACCC"><circle cx="3.663" cy="3.662" r="3.662"/><circle cx="19.124" cy="3.662" r="3.662"/><circle cx="35.4" cy="3.662" r="3.662"/><circle cx="50.862" cy="3.662" r="3.662"/><circle cx="67.138" cy="3.662" r="3.662"/><circle cx="82.6" cy="3.662" r="3.662"/><circle cx="98.876" cy="3.662" r="3.662"/><circle cx="3.662" cy="19.124" r="3.662"/><circle cx="19.124" cy="19.124" r="3.662"/><circle cx="35.4" cy="19.124" r="3.662"/><circle cx="50.862" cy="19.124" r="3.662"/><circle cx="82.6" cy="19.124" r="3.662"/><circle cx="66.907" cy="19.196" r="3.662"/><circle cx="98.876" cy="19.124" r="3.662"/><circle cx="3.662" cy="35.4" r="3.662"/><circle cx="35.4" cy="35.4" r="3.662"/><circle cx="19.866" cy="35.4" r="3.662"/><circle cx="50.862" cy="35.4" r="3.662"/><circle cx="67.138" cy="35.4" r="3.662"/><circle cx="82.6" cy="35.4" r="3.662"/><circle cx="98.876" cy="35.4" r="3.662"/><circle cx="3.662" cy="50.862" r="3.662"/><circle cx="19.124" cy="50.862" r="3.662"/><circle cx="35.4" cy="50.862" r="3.662"/><circle cx="50.862" cy="50.862" r="3.662"/><circle cx="67.138" cy="50.862" r="3.662"/><circle cx="82.6" cy="50.862" r="3.662"/><circle cx="98.876" cy="50.862" r="3.662"/><circle cx="3.662" cy="67.138" r="3.662"/><circle cx="19.124" cy="67.138" r="3.662"/><circle cx="35.4" cy="67.138" r="3.662"/><circle cx="50.862" cy="67.138" r="3.662"/><circle cx="67.138" cy="67.138" r="3.662"/><circle cx="82.6" cy="67.138" r="3.662"/><circle cx="98.876" cy="67.138" r="3.662"/><circle cx="3.662" cy="82.6" r="3.662"/><circle cx="19.124" cy="82.6" r="3.662"/><circle cx="35.4" cy="82.6" r="3.662"/><circle cx="50.862" cy="82.6" r="3.662"/><circle cx="67.138" cy="82.6" r="3.662"/><circle cx="82.6" cy="82.6" r="3.662"/><circle cx="98.876" cy="82.6" r="3.662"/><circle cx="3.662" cy="98.876" r="3.662"/><circle cx="19.124" cy="98.876" r="3.662"/><circle cx="35.4" cy="98.876" r="3.662"/><circle cx="50.862" cy="98.876" r="3.662"/><circle cx="67.138" cy="98.876" r="3.662"/><circle cx="82.6" cy="98.876" r="3.662"/><circle cx="98.876" cy="98.876" r="3.662"/><circle cx="3.662" cy="114.338" r="3.662"/><circle cx="19.125" cy="114.338" r="3.662"/><circle cx="35.4" cy="114.338" r="3.662"/><circle cx="50.862" cy="114.338" r="3.662"/><circle cx="67.138" cy="114.338" r="3.662"/><circle cx="82.6" cy="114.338" r="3.662"/><circle cx="98.876" cy="114.338" r="3.662"/></g></svg>